/* XPM */
static char *dolar1702050266[] = {
/* columns rows colors chars-per-pixel */
"64 64 220 2 ",
"   c #36353A",
".  c #282A3C",
"X  c #33471C",
"o  c #3C4D37",
"O  c #6F4D3E",
"+  c #5D7328",
"@  c #65762C",
"#  c #313345",
"$  c #403945",
"%  c #3E464C",
"&  c #444244",
"*  c #4A474B",
"=  c #564D4A",
"-  c #465A42",
";  c #4D4B53",
":  c #5A555B",
">  c #5A5858",
",  c #4F5553",
"<  c #625D5B",
"1  c #68595A",
"2  c #4A654D",
"3  c #69665C",
"4  c #6B6C5E",
"5  c #555A76",
"6  c #4A4E72",
"7  c #5F6163",
"8  c #58687B",
"9  c #656362",
"0  c #6A6967",
"q  c #66646B",
"w  c #6A666C",
"e  c #6B6767",
"r  c #726B6C",
"t  c #786968",
"y  c #647564",
"u  c #77716D",
"i  c #7B746D",
"p  c #6B6C71",
"a  c #666E74",
"s  c #6C747C",
"d  c #74747B",
"f  c #7B777E",
"g  c #77797B",
"h  c #7C7B7B",
"j  c #787575",
"k  c #716E77",
"l  c #8D3A0B",
"z  c #94451C",
"x  c #9E440D",
"c  c #A4480B",
"v  c #AC5924",
"b  c #AA6337",
"n  c #8D5536",
"m  c #97754D",
"M  c #9E794F",
"N  c #9B764F",
"B  c #8B7552",
"V  c #997650",
"C  c #9E7B53",
"Z  c #94795A",
"A  c #886C5F",
"S  c #A27D55",
"D  c #A57F59",
"F  c #887769",
"G  c #947C68",
"H  c #847A77",
"J  c #836F67",
"K  c #7A9E17",
"L  c #718D27",
"P  c #6F8B2D",
"I  c #788E4D",
"U  c #768668",
"Y  c #758476",
"T  c #6B836A",
"R  c #8AA933",
"E  c #84A622",
"W  c #9D945C",
"Q  c #A58156",
"!  c #A98257",
"~  c #A6835A",
"^  c #AA855C",
"/  c #AD895E",
"(  c #B18A5F",
")  c #8DA74B",
"_  c #9A8167",
"`  c #8A887C",
"'  c #9A8975",
"]  c #8D9973",
"[  c #AC8760",
"{  c #AE8A61",
"}  c #A5896A",
"|  c #A88A68",
" . c #B28D63",
".. c #B98F64",
"X. c #B58F68",
"o. c #B0856B",
"O. c #B59166",
"+. c #B99366",
"@. c #B69369",
"#. c #BA956A",
"$. c #BD996D",
"%. c #A98F75",
"&. c #AA9278",
"*. c #BE9C71",
"=. c #B79978",
"-. c #B2956E",
";. c #96A066",
":. c #BFA17E",
">. c #C09769",
",. c #C19B6E",
"<. c #C29E72",
"1. c #C29C78",
"2. c #C5A175",
"3. c #C8A377",
"4. c #C6A479",
"5. c #C9A579",
"6. c #CCA97C",
"7. c #D0AB7F",
"8. c #4D5A8E",
"9. c #576593",
"0. c #7A7681",
"q. c #7B7B84",
"w. c #757C82",
"e. c #686D8D",
"r. c #837D84",
"t. c #8C7E81",
"y. c #7E838A",
"u. c #7D8187",
"i. c #858585",
"p. c #8A8483",
"a. c #85848A",
"s. c #8A848C",
"d. c #8C888B",
"f. c #888887",
"g. c #938989",
"h. c #9C948D",
"j. c #92958B",
"k. c #8C8B92",
"l. c #8D8792",
"z. c #938D94",
"x. c #9A8E95",
"c. c #8E949C",
"v. c #8D9194",
"b. c #939497",
"n. c #9C9295",
"m. c #93959B",
"M. c #9B949C",
"N. c #95999D",
"B. c #9C9B9B",
"V. c #A6988B",
"C. c #B69B86",
"Z. c #A49B95",
"A. c #A49B99",
"S. c #B09F91",
"D. c #9AA295",
"F. c #B9A289",
"G. c #ACA49C",
"H. c #A9A99A",
"J. c #BBA794",
"K. c #B6A898",
"L. c #9D9CA2",
"P. c #9697A4",
"I. c #908FAB",
"U. c #A49CA3",
"Y. c #A99FA6",
"T. c #9CA4AC",
"R. c #9DA3A2",
"E. c #A5A2A3",
"W. c #ACA2A4",
"Q. c #A3A4AA",
"!. c #ADA6AD",
"~. c #ACABAD",
"^. c #A8ACAB",
"/. c #B4AAA2",
"(. c #B6A9A6",
"). c #AFB1AD",
"_. c #B5B1A6",
"`. c #BCB3A6",
"'. c #BBB3AB",
"]. c #B5B4AC",
"[. c #A2A5B2",
"{. c #A5ABB2",
"}. c #ABACB3",
"|. c #B5ACB4",
" X c #B8AFB7",
".X c #ACB1B5",
"XX c #ACB3BA",
"oX c #A6B2B5",
"OX c #B9B3B3",
"+X c #BCBAB6",
"@X c #B5B5B9",
"#X c #BCB3BB",
"$X c #BCBBBB",
"%X c #B4B6BA",
"&X c #C19F81",
"*X c #C4A583",
"=X c #CEAD80",
"-X c #C7AC8A",
";X c #C2AD97",
":X c #C5B29C",
">X c #C3B6AB",
",X c #C3BBB5",
"<X c #C2BBBC",
"1X c #C2ADA2",
"2X c #CDC5BD",
"3X c #D4C9BD",
"4X c #D3C5B8",
"5X c #B2B9C0",
"6X c #BDBCC3",
"7X c #C4BCC3",
"8X c #C9BFC2",
"9X c #BBC1C5",
"0X c #BCC3C9",
"qX c #C3C1C4",
"wX c #C7C5C9",
"eX c #D2CFCD",
"rX c #D7CEC5",
"tX c #D9D3CB",
"yX c #D6D1CC",
"uX c #D8D5D0",
/* pixels */
"#.#.#.#.,.X.$.#...{ { X.,.<.*.<.*.O.O.@.@.@.+.@.@.O.@.O.@.@.O./ @.$.*.*.2.2.$.*.2.*.<.$.,.,.>.2.,.2.2.$.,.>.$.$.$.$.>.+.+.+.#.$.",
"$.$.#.+.X.X.X./ (  .#.*.,.*.*.+.O.O.O./ / / { / O.O.@.@.@.@.@.@.O.$.2.2.*.2.2.2.*.*.2.2.3.6.3.3.3.6.6.6.3.3.6.5.2.2.2.2.2.2.2.2.",
"*.#.O.O.X.X.X.X...#.,.*.*.*.#.X.@.O.@.@.@.@.@.@.O./ @.@.{ @.@.@.O.O.*.2.*.*.2.$.$.*.2.*.3.2.2.2.2.2.2.2.3.3.3.4.6.3.2.3.2.5.4.4.",
"#.#.#.#.X.#.$.#.X.#.X.X.X.#.@.X.@./ / +.O./ / / O.O.O.O.@.@.@.@.O.$.2.2.6.6.2.*.*.*.4.4.2.6.6.,.2.2.3.3.3.3.3.7.6.2.3.2.2.5.6.4.",
"*.$.<.<.<.*.*.#.@.*.@.@.@.*.*.*.*.$.$.$.*.+.O./ Q ~ ~ { { { { ~ ~ ~ ~ ~ / ~ ~ Q Q / / Q ! $.$.$.,.>.,.,.,.,.,.2.2.,.,.,.,.,.<.,.",
"$.@.<.5.<.#.#.@.*.*.4.*.*.<.*.4.*.<.*.5.<.6.<.Q Q Q Q ~ ~ ~ m Q m m m Q Q Q m Q m m Q Q M ( +.O.+.+.+.+.O.>.+.O.+.#.#.+.+.+.+.+.",
"....,.<.*.*.<.*.*.*.<.*.*.*.*.*.*.*.*.*.*.*.*./ Q ~ { ~ ~ ~ ~ ~ ~ ~ ~ ~ Q Q Q Q M Q Q Q ! +.+.+.O.O.O.O.+.+.+.O.+.+.#.+.+.+.$.+.",
"@. .$.5.<.6.<.=X4.4.6.*.*.*.*.*.$.$.$.*.*.*.<.Q Q ~ ~ ~ ~ ~ ~ { ~ ~ ~ ~ ~ ~ Q m Q M / / / O.O.+.O.O.+.>.+.O.O.+.+.+.+.+.O.+.$.#.",
">.( O.>.O.#.#.>.X.@.#.#.O.+.#.,.$.$.2.$.$.$.*.*.@.$.$.$.$.$.$.$.*.*.+.@.+.*.$.+.@.@.*.@.>.>.,.2.2.,.,.2.<.<.,.$.2.,.O.O.O.O.O.O.",
">.+.O.+.+.#.O.O.@.@.@.O.O.O.,.3.2.2.2.2.2.2.6.2.6.2.6.2.2.2.2.2.4.4.4.4.2.<.<.6.2.2.2.<.2.3.6.2.2.2.3.2.2.<.2.5.,.$.O.O.O.O./ O.",
"+.>.+.+.+.+.+.+.X.@.X.O.( ( >.6.6.2.6.6.2.2.2.6.4.2.4.2.2.2.4.2.*.*.4.*.2.*.*.2.2.2.6.2.2.3.3.2.3.3.5.5.2.2.<.<.$.$.$.+.O.O.{ { ",
"+.+.O.O.+.+.+.+.@.@.@.#.#.+.,.3.2.2.6.7.7.7.7.2.7.7.6.6.6.6.=X6.7.7.4.4.2.6.6.6.2.6.6.2.3.3.6.6.3.2.,.2.2.2.<.<.2.*.+.@.O.@./ @.",
"2.2.,.>.>.2.2.( ( ( O.+.+.O.O.+.( ( ( ( O.$.$.O.Q / @.O.O.O.O.O.@.@.@.@.*.2.2.2.2.2.2.2.2.,.2.,.,.2.,.2.<.<.$.*.*.*.*.*.$.*.*.*.",
"2.3.6.3.3.2.3.O.( O.O.( ( O.O.( O./ Q / ( O.( / Q / / O.O./ / / ~ ~ / / *.4.2.2.5.$.,.2.2.,.,.>.,.,.,.,.<.2.<.<.*.$.4.4.4.4.4.4.",
"2.2.2.2.2.,.,.( O.O.O.( ( O. . .O.( O.O.O.O.O.O.O.$.O.O.O.O.O.O.*.O.O.O.$.6.2.2.<.6.5.2.2.,.,.$.2.,.,.,.2.2.4.2.4.*.4.*.4.*.*.4.",
"6.6.2.2.6.6.3.+.O.(  .O. .(  . .O.O.O.O.( ( O.O.O.O.O.$.O.$.$.@.@.O.@.@.*.*.2.4.5.<.$.2.2.2.6.2.2.,.2.2.2.2.4.6.4.4.4.4.4.*.*.*.",
"<.2.*.$.$.$.$.$.@.@.O.O.$.$.$.$.$.$.$.,.,.$.+.+.O.O.Q ( / / Q Q ! / / ! / O.O.O.O.@.O.O./ O.@./ ( +.+.+.O.#.O.#.O.$.,.$.$.<.$.$.",
"$.2.$.$.$.O.O.O.$.$.$.$.$.$.$.$.,.,.2.,.,.,.2.2.2.$.Q Q M Q Q Q ! ! ! Q / ( ( / / Q Q Q / O.O./ O.( O.( ( ( ( O.( O.$.O.O.,.$.$.",
",.,.$.$.,.$.$.$.@.+.$.$.+.O.$.$.$.>.+.+.$.,.,.$.$.$.Q / Q / O./ O.O.O.O.O.( / / / ( O.O.O.O./ / ( ( / ! / ! ! / ( O.<.,.,.<.<.2.",
"$.+.,.,.,.$.$.$.@.@.$.*.,.$.$.,.$.$.$.,.,.,.,.,.$.$./ / / / / / / O.( O.O.O.O.O.O.( / / / ~ -.&.F.O.! ! / ( ( O.O.$.,.,.$.,.,.,.",
"( ( O.( O.O.( O.O.{ O.{ { { { ~ / / O.O.O.O.( O.O.O./ / / S Q { +.$.$.+.$.$.+.@.O.@.=.V.Z.H.R.P.c.+X=.( @.O.+.>.+.+.+.+.O.+.+.+.",
"(  .( ( ( O.( ( { { / { @.{ { { / ( ( ( O.O.O.( O.O.O.O.O./ @.@.+.,.$.$.$.$.,.:.F.Z.^.D.f.N.c.{.oXoXJ.$.>.O.+.+.+.+.+.+.O.O.O.+.",
" .#.@.@.O.O.O.O.@.O.@.@.@.{ { { ( O.O.O.O.O.O.O.O.O.@./ / O.{ @.+.=.=.J.K.Z.N.i.v.N.Z.&.`.tXtXuXeX%X%XJ.O.O.@.O.+.+.+.+.O.O.( +.",
"+.$.@.$.@.$.$.O.@.@.@.@.@.@.@.@.O.$.O.O.O.O.O.+.@.@.O.#.-.-.W H Z.Z.j.a.s d i.N.v.g.&.:XrXuXtXuXuXeXXX$X#.@.+.>...O.+.+.+.+.+.+.",
"/ / ^ / Q Q ~ { *.*.4.4.*.4.*.4.2.4.4.2.<.<.$.<.*XF.1X>XA.] R 7 d b.Q.d a.q.w.f.3 G *X4XtXtXuXtXtXtXqX{.:X<.,.4.+.( ( +... ...( ",
"Q Q Q ^ Q Q Q ~ 4.4.4.$.4.4.4.4.2.4.4.-X;X>X/.x.r.t.t.j i.g.) ` e.0.a.g u.v.b.` %.=.o.i y j._.tXtXtXyX+X%X;X4.2.,.( ..(  .( O...",
"Q Q Q Q Q Q Q Q *.4.4.4.4.4.5.*X-XK.(.M.r : : ; p.'.wX`./.p.4 R 9.5 B.U.XX}.F.*X=.Z - y y % T 3XtXtXeXeX{.$X4.2.+.( +.+.( ( (  .",
"Q Q Q Q Q Q Q ~ 4.4.6.-X-XJ.K.W.x.0.r.M.U.U.l.: x.'.,XV.H.i & L ] I.qXqX7X>X&X=.=.' y 2 2 + Y wXrXrXrX3X%X{.$X=X+.+. . .O.(  .O.",
"{ O.{ { / / { @.:.S.K.E.R.P.m.s.l.U.!.!. X8Xr = H K.h.= H.` < @ ) T.[.8X6XJ.=.$.=./.a.Y T j.>X3X3X3X3X3X+X^.5XJ.,.#.#.+.+.+.$.$.",
"{ O.{ { @.@.@.=.9XwXa c.P.a.L.!.!.@X).~.OXOXr r > Z.+X'.(.` < 4 P , 8. X1X*X1.1.J.$XOX].+X2X_.`._.H./.'.OX%XL.XXF.O.$.$.,.$.$.>.",
"@.@.@.@.O.@.O.=.$XwXT.{.T.{..X.X@X#X<X<X8XY.r 3 < h.K.(.A.n.3 > @ + 8.I.;XC.o.o.| K.+X).D.R.R.D.H.H.S.&.%.' }.w.OX=.O.+.$.$.+.O.",
"@.@.O.O.O.@.{ X.+X0XoXoXoX9X9X,XU.g i.|.8Xg.H 9 = H h.G.G.K.g.,   K 5 8.V.S.z l z b H.).].].G.B B _ B ' ' Z.^., T.`.$.$.+.>.$.,.",
"( O. .O.O. ./ { +X9X{.oX%X%X6Xk.a : q w 7XH 0 9   < ` g.g.h.p.;   L I 6 P.,Xv x x c b K.m.~._.' ' V.E.~..XXXXX%XT.R.%.~ ~ { O./ ",
"O.O.O.O. . .( { '.9X{.%X$X$X6Xq.w.p k w 7Xr.< &   r +XA.H > & # & ` E 5 e.<Xb x z z n F 3 > B.~.}.oX5XXX^.N.y.w.b.j.| ^ / ^ ^ / ",
"O.O.+.O.O.( O.{ _.0X{.oX+X$X7XQ.r.r.l.|.7Xs.$ $ ; q U. X'.j.H :   * L I 0.l.A O = = q g k.Q.~.).~.R.v.v.g s y p 0 i ^ / O. ./ O.",
"+.+.+.$.+.+.+.@._.9XT.oX+X9X$X$X7X[.5X7X7X|.q q 0.d H M.!.U.z.k j z.] K % # : w d.{.qX~.E.B.B.f.a.i.g 7 7 q 0 J G [ /  . . ./ / ",
"2.,.2.2.4.4.4.5.>X0XoXXXXX[.{. X}.5X6X|.#Xz.r.l.l.M.f s.M.M.M.r.l.s.d.R T 9.I.[.B.B.d.g.i.j 3 0 0 u F _ %.*.2.2.5.<.<.2.*.*.*.O.",
"2.2.2.2.4.6.4.3.'.0X{.XX5XXX[.XX[.Y.!.U.r.0.r.s.r.M.s.0.x.M.M.Y. X X|.;.P 6 6 r.` i r r t F F ' -.-.*.2.4.6.2.2.5.<.3.2.*.2.<.O.",
"2.2.2.2.4.6.4.4.'.0XoXT.P.{.Q.!.6X7X|.0.0.0.r.l.0.t.U.!.7X8X8Xx.t.x.Y.F X # : r r u F %.-.-.*.*.*.*.2.4.2.2.<.$.<.<.,.2.,.2.2.( ",
"2.2.2.6.4.4.4.4.`.0X%Xc.5X{.{.Q.[.t.0.0.r.z.Y.|.7X8X!.A.x.x.g.g.t.j 1 = X $ J %.-.*.2.*.*.$.*.,.4.*.$.,.$.*.2.2.<.<.2.2.2.2.2.O.",
"O.@.@.@.@.@.@.{ J.0X9Xs s c.c.f p 0.Y.7X7X#X XY.t.t.x.A.H 1 1 1 J F G Z B $.$.O.@.@.O.@.@.@.O.@.+.+. .+.( #.O.#...@...........+.",
"{ O.{ @.{ @.@.{ F.9X0Xy.s c.Q.Q.!.}.U.U.M.n.g.p.H i t t J J G } D o.O.X.O.{  .O./ { ( / { { / ~ ! ! ! ! / #.O.( ( ( (  . .( (  .",
"@.@.@.@.@.@.@.@.F.9X0X0X0XT.N.m.I.l.x.g.t.J t t t J G _ D  .@.X. .O.O.O.O.O.O.O.{ O.{ / { { { / / / ^ ^ ( $.#.O. .{ (  . .{ ( ( ",
"@.@.@.@.@.{ / @.%.G.B.b.c.b.f.Y e t t t F G G S [ { ~ Q o.{ [ {  . . . .O.O./ / { / / / ~ / / / / / ! / ! +.$.$.>.>.+.+..... ...",
"{ { { ~ ~ ~ ~ ~ ~ ` i.i.h u e u F F _ | o.o.O. .{ { { { { { X.X.O.O.O.O.O.@.O.O.O.{ O.O.@.O.O.O.{  .#.$.@.$.#.#.#.$.,.<.<.<.<.3.",
"{ { ~ ~ ~ { { ~ ~ _ H ` F G _ | { @.@.#.#.#.#.@.@.@.@.@.@.X.@.X. .O.O.@.@.@.@.O.@.@.@.@.@.@.@.@.$.#.$.$.$.<.$.$.,.$.,.<.<.<.,.,.",
"{ ~ ~ ~ ~ ~ ~ ~ [ ~ [ ~ ~ ~ ^ O.#.#.#.#.#.#.#.#.{ @.@.@.@.@.X.X.O.O.@.@.$.O.@.$.$.O.O.O.O.O.@.@.@.@.@.@.#.$.$.$.#.$.2.2.<.<.<.<.",
"{ @.{ @.@.{ @.@.{ @.{ { [ { / O.+.+.@.O.O.@.#.*.*.*.@.@.@.@.@.*.$.@.@.$.$.$.$.$.$.$.$.@.@.$.O.@.@.@.@.@.@.O.O.#.O.#.#.#.,.<.,.$.",
"*.@.$.@.@.@.@.@.@.@.@.@.@.{ @.@.+.X.X.X.X.$.*.*.4.*.4.*.*.<.*.*.$.*.*.*.*.4.*.*.4.*.4.*.2.*.*. .{ { { @. ./  . . . . ...( ( ( ( ",
"@.@.@.@.@.@.{ @.{ @.{ @.@.@.@.@.X.X.X.X.[ $.*.*.*.*.*.4.*.*.*.*.*.*.<.*.*.*.*.*.*.4.2.*.*.*.2.X./ { { /  .{ / ^ ( ^ ^ { ^ ( { ..",
"{ ^ ~ ~ { @.~ { { @.[ { { { / [ [ [ X.[ [ *.=X=X4.4.4.4.*.4.4.=X4.4.*.4.4.4.*.=X*.4.*.*.*.*.<.{ / / ^ ~ ! / ! M N S S S ! D D D ",
"@.@.@.@.~ { { { / [ [ { @.{ [ { [ [ D D [ @.*.=X5.4.4.*.*.*.*.*.*.*.*.*.*.*.*.*.*.*.*.*.@.*.+. .{ O.{ { / / ! ! Q ! ! ^ ( ^ ! ^ ",
"4.4.4.*.~ ~ ~ ~ V ~ ~ V Q ~ V ~ D D D D S D Q D X.[ ~ D C ~ D [ { [ [ [ ^ { { { Q ~ { [ { { / X.@.@.O.#.#.O.#.#. .X. .{  . .X.X.",
"4.4.4.*.~ ~ ~ ~ ~ ~ ~ ~ C ~ ~ V D D D D D D S S ~ Q [ ~ ~ D D C C Q ~ ~ ^ [ Q C ~ ~ { [ [ [ / X.$.@.O.+.@.O.O.(  .( ( ^  .^ [ [ ",
"7.4.4.4./ ~ / ~ { @.{ [ [ [ [ ~ D [ [ D ^ ^ ^ ^ D D V D [ { [ C V Q ~ [ / S ! ^ C Q [ { D ( D  .O.O. . .O.+.+.( +..... .X.X.X. .",
"*.*.*.*.{ @.{ { { { @.{ [ [ @.[ /  .X.[ { { [ / [ [ [ { [ { { { { [ @.{  .{ { { { / { { ../ X.X.@.@.+.+.O.O.+.+..... ...{ [ [ [ ",
"{ / / / / / ( ( { [ Q { @.@.{ @.O.@.X.X.O.+...+.X.X.,.#.#.,.#.#.@.@.,.<.#.,.,.#.>.>.>.>.....>.>.>.>.>.>.>.>.>.,.#.>.#.>... .( ( ",
"^ / ! ^ ^ /  .( { { { { { { { { ( O.#.@.+. ...#.<.>.#.>.#.$.#.#.@.@.X.X.X.X.....D >.>.......>.D ....>.>...>.>.>.>.>.#.#.( ^ D D ",
"O.O. .(  . .( ( @.{ { { @. .{ @.( +.#.#.+.O. .#.>.X.X.+.+.+.O.+.@.@.@.#...+.$.X.D >.>.S ..D >.>.>.>.>.>.>...>.>.>.>.,.,.../ ! ^ ",
"/ ^ (  . . ...( { { { @. .{  .{ ( +.#.+.@.#.>.,.,.,.,.#.>.,.$.$.@.@.@.*.>.....>.>.>.>.,.>.>.>.>.>.>.,.>.>.>.,.,.,.<.>.>...( ( ( ",
"^ ^ / O.( ^ D ^ ! / / ! Q Q Q Q ! +.3.3.<.<.<.,.<.<.<.>.$.$.*.$.,.,.#.$.<.<.<.<.2.<.<.,.,.3.5.<.<.5.5.3.<.<.<.,.>.$.$.<.,.<.<.3.",
"^ / / / ( ^ ^ D ! ! ! ! ~ Q Q ! ^ #.<.3.<.<.,.<.<.<.,.,.$.$.$.#.#.#.O.#.#.,.<.=X6.<.5.3.,.<.3.<.<.3.,.,.,.,.<.<.<.<.2.<.,.,.,.<.",
" . . ./ ( D ! ! / ( / / / /  .O./ @.<.<.<.7.<.<.,.,.,.,.*.@.#.@.O.O. .O.#.X.,.<.<.<.<.7.<.<.,.<.3.3.3.3.5.5.5.5.3.2.<.$.#.#.,.<.",
" . . . .( / / ( ( (  . ./ / / / / X.#.,.#.>.#.#.+.,.X.$.#.#.#.#.#.O. .X.X.X.X.>.>.,.,.X.X.>.$.,.>.,.,.<.<.5.<.<.<.$.*.$.$.$.$.#."
};
