/* XPM */
static char *door1702050266[] = {
/* columns rows colors chars-per-pixel */
"64 64 137 2 ",
"   c #261D0D",
".  c #281F0F",
"X  c #281F10",
"o  c #29200F",
"O  c #2C2312",
"+  c #312615",
"@  c #342917",
"#  c #392C17",
"$  c #352B19",
"%  c #3A2E19",
"&  c #3E311B",
"*  c #3C3323",
"=  c #43341D",
"-  c #443621",
";  c #463823",
":  c #483A26",
">  c #453D2C",
",  c #473F30",
"<  c #483F30",
"1  c #48402F",
"2  c #4C4333",
"3  c #504737",
"4  c #544836",
"5  c #504738",
"6  c #544C3C",
"7  c #584F3F",
"8  c #5D513F",
"9  c #61523D",
"0  c #705A3F",
"q  c #574F40",
"w  c #5C5444",
"e  c #5F5847",
"r  c #5F5748",
"t  c #605746",
"y  c #6A5941",
"u  c #605748",
"i  c #625A4B",
"p  c #675F50",
"a  c #685F50",
"s  c #67604F",
"d  c #6A604E",
"f  c #7D6447",
"g  c #75634C",
"h  c #7A674D",
"j  c #7D684B",
"k  c #676051",
"l  c #6B6353",
"z  c #6F6857",
"x  c #6E6758",
"c  c #6F6859",
"v  c #736451",
"b  c #766955",
"n  c #7C6B53",
"m  c #736C5C",
"M  c #7A6D59",
"N  c #78705F",
"B  c #766F60",
"V  c #7B7463",
"C  c #7F7867",
"Z  c #7F7768",
"A  c #806B4F",
"S  c #97754D",
"D  c #9B764F",
"F  c #9E794F",
"G  c #806E56",
"H  c #837159",
"J  c #8A765D",
"K  c #8E7A5F",
"L  c #997650",
"P  c #947855",
"I  c #9D7B53",
"U  c #967A58",
"Y  c #9C7D5A",
"T  c #A27D55",
"R  c #A57F59",
"E  c #807662",
"W  c #847865",
"Q  c #847C6B",
"!  c #887F6E",
"~  c #937F62",
"^  c #887F70",
"/  c #9D805D",
"(  c #A58156",
")  c #A98257",
"_  c #A6835A",
"`  c #AA855C",
"'  c #AD895E",
"]  c #B18A5F",
"[  c #8A806F",
"{  c #978265",
"}  c #9B8467",
"|  c #95846D",
" . c #99846A",
".. c #878070",
"X. c #8C8373",
"o. c #8F8778",
"O. c #938773",
"+. c #978974",
"@. c #9D8A73",
"#. c #908778",
"$. c #948C7C",
"%. c #9A8C79",
"&. c #9E917C",
"*. c #A38764",
"=. c #AC8760",
"-. c #AE8A61",
";. c #A48B6C",
":. c #AC8E6A",
">. c #B28D63",
",. c #B98F64",
"<. c #B58F68",
"1. c #AC916D",
"2. c #B59166",
"3. c #B99366",
"4. c #B69369",
"5. c #BA956A",
"6. c #BD996D",
"7. c #A28E73",
"8. c #AE9471",
"9. c #A9967B",
"0. c #B49773",
"q. c #B59A77",
"w. c #BE9C71",
"e. c #B69B79",
"r. c #BA9D78",
"t. c #C09769",
"y. c #C19B6E",
"u. c #C29E72",
"i. c #C5A175",
"p. c #C8A377",
"a. c #C6A479",
"s. c #C9A579",
"d. c #CCA97C",
"f. c #D0AB7F",
"g. c #989082",
"h. c #A39580",
"j. c #CEAD80",
/* pixels */
"5.5.5.5.y.<.t.5.,.-.-.<.y.u.w.w.6.4.2.4.4.4.4.2.4.2.4.2.4.4.2.-.2.6.6.w.p.i.6.w.i.w.i.6.6.y.6.i.y.i.i.6.y.t.6.y.6.6.t.3.3.3.5.6.",
"6.6.5.3.<.<.<.-.] >.5.w.y.w.w.5.2.2.2.' ' ' -.-.2.2.4.4.4.4.4.4.2.6.i.i.w.i.i.i.w.w.i.i.p.d.p.p.p.d.d.d.p.p.d.i.i.i.i.i.i.i.i.p.",
"w.5.2.2.<.<.<.<.,.5.y.w.w.w.5.<.4.2.2.4.4.4.4.2.2.-.4.4.-.4.4.4.2.2.w.i.w.w.i.6.w.w.p.6.p.i.i.i.i.i.i.i.p.p.p.p.d.p.i.p.p.p.p.a.",
"5.5.5.5.<.5.6.5.<.5.<.<.<.5.4.<.2.' -.4.2.' -.-.2.2.2.2.4.4.4.2.2.6.p.i.d.d.i.w.w.w.a.p.i.d.d.y.i.i.p.p.p.p.p.d.d.i.p.i.i.p.d.a.",
"w.6.u.u.u.w.w.5.4.w.4.4.4.w.w.w.w.6.6.w.6.4.2.' ( _ _ ' -.-.>._ _ _ _ ( ' _ _ ( ` ' ' ( ) 6.6.t.y.t.y.y.y.y.y.i.p.y.y.y.6.y.i.6.",
"6.4.u.s.u.5.5.<.w.w.a.w.w.u.w.a.w.i.w.a.i.d.i.( ( ( ( _ _ _ S ( S S S ( ( ( S ( S S ( ( F ] 2.2.3.3.3.3.2.t.3.2.3.5.5.3.3.3.3.3.",
",.,.y.u.w.w.w.w.w.w.u.w.w.w.w.w.w.w.6.w.w.w.6.' ( _ -._ _ _ _ _ _ _ _ _ ( ( ( ( F ( ( ) ) 2.3.3.2.2.2.2.3.3.3.2.3.3.5.3.3.3.6.3.",
"4.>.6.s.u.j.u.j.a.a.d.w.w.w.w.w.6.6.6.w.w.w.i.( ( _ _ _ _ _ _ ' _ _ _ _ _ _ ( S ( F ' ' ' 2.2.2.2.2.3.t.3.2.2.3.3.3.3.3.2.3.6.5.",
"t.] 2.t.2.5.5.t.<.4.5.5.2.3.5.y.6.6.i.6.6.6.6.6.2.6.6.w.6.w.6.6.6.w.4.4.2.6.6.2.4.4.6.4.t.t.y.i.i.y.y.i.u.i.i.6.i.y.2.2.2.2.2.2.",
"t.3.2.3.3.5.2.2.4.4.4.2.2.2.y.p.i.i.i.i.i.i.d.i.j.i.d.i.u.u.p.a.a.a.a.a.i.i.p.d.i.i.i.i.i.p.d.i.i.i.p.p.i.6.i.p.y.6.2.2.2.2.' 2.",
"3.t.3.3.3.3.3.3.<.4.<.2.] ] 5.d.d.i.d.d.i.p.i.d.u.e.9.h.9.r.h.%.$.$.%.1.p.6.6.p.i.i.d.i.i.p.p.i.p.p.p.p.i.i.i.6.6.6.6.4.2.2.-.-.",
"3.3.2.2.3.3.3.3.4.4.4.5.5.3.y.p.p.p.d.d.d.j.j.r.&.X.#.$.B %.o.^ X.g...V { 9.&.9.e.s.d.i.p.p.d.d.p.i.6.i.i.i.w.i.p.w.4.2.2.2.-.2.",
"i.i.y.t.t.i.i.] ] ] 2.3.3.2.2.3.>.' ] ] 4.0.8.! ! ^ Q V i Z X.X...Q V c k ..! ! $.g.e.i.i.6.i.y.y.i.y.i.6.i.6.6.w.w.w.w.6.w.w.w.",
"i.p.d.p.p.i.p.2.] 2.2.] ] 2.2.] 2.' ( -.%.$.$.Q l m B r * i c B V N m w l C ! ....V H p.p.u.y.y.y.y.y.y.i.i.w.i.w.w.a.a.a.a.a.a.",
"p.p.i.i.p.y.y.] 2.2.2.] ] 2.>.>.2.-.2.;.o.X...Q r 2 2 * O O $ $ * 1 1 , 6 x B V V c b r.r.y.y.t.i.y.y.y.i.i.p.p.a.w.a.w.a.w.w.a.",
"d.d.i.i.d.d.p.3.2.] >.2.>.] >.>.2.:.:. .! Q C B 2         X     o o     O * 6 c c e Q $.$.q.d.i.i.y.i.i.i.i.a.d.a.a.a.a.a.w.w.w.",
"6.p.w.6.6.6.6.6.4.4.2.2.6.6.6.6.+.o...B q k i 6 O           X   o o o       o $ , 5 Z o...| 2.] ] 3.3.3.2.5.2.5.2.6.y.6.6.u.6.6.",
"6.i.6.6.6.2.2.2.6.6.6.6.6.6.6.8...! C l $ O O     X O O X   X + O + o o         o * l V ! ! ;.] 2.] 2.] ] ] >.>.] 2.6.2.2.y.6.6.",
"6.y.6.6.y.6.6.6.4.3.6.6.3.2.5.o.X.V i 2           @ $ + O o O $ $ $ + O o   o o     * w m C V ' ] ] ' ) ' ) ) ' ] 2.u.y.y.u.u.i.",
"6.3.y.y.y.6.6.6.4.4.6.w.y.6.:.V Q x 2 O   O O o   O # + + + O $ $ & % O o   O @ o     + 6 l H / ' ] ) ) ' ] ] 2.2.6.y.y.6.y.y.y.",
"] ] 2.] 2.2.] 2.2.-.2.-.-.>.-.4 1 2 @   o O + O O @ % # + @ O % & & & O O O O % $ O O   + m Q V b -.2.] 2.2.3.t.3.3.3.3.2.3.3.3.",
"] >.] ] ] 2.] ] -.-.' -.4.;.[ m q * o o $ $ & $ O @ % % % $ + & ; = = $ + O O & * % O     5 X...V J 4.6.y.2.3.3.3.3.3.3.2.2.2.3.",
">.5.4.4.2.2.2.2.4.2.4.4.4.@.$.X.V w O o & @ % $ @ $ = = % $ + % = ; - $ % O O = - & % O   O m X.Q s _ 2.2.2.3.2.3.3.3.3.2.2.] 3.",
"3.6.4.6.4.6.6.2.4.4.4.4.4.O.[ ! Q i O + = & & % + + = - % % @ & - - = # % O O & ; & & O O   r X.C s U 4.2.2.3.t.,.2.3.3.3.3.3.3.",
"' ' ` ' ( ( _ ' u.w.a.a.w.@.[ V c w o + = = : % @ @ = & % = + % = - = & $ @ o = - = % @ O . w ! B w Y p.y.y.y.p.3.] >.,.,.>.,.] ",
"( ( ( ` ( ( ( _ a.a.a.w.a.7.V Q V i o @ = - = & O @ - = = = + % = ; & & & @ o = = & & @ O O q C c 6 / p.p.p.p.p.y.] ,.] >.] 2.,.",
"( ( ( ( ( ( ( ( w.a.a.a.a.@.w w 7 *   @ : : = # O O = & = % O & - ; - & # # O = # & = # O   > m r 5 4.p.p.p.u.u.3.] 3.,.] ] ] >.",
"( ( ( ( ( ( ( _ a.a.a.d.r.$.X.B i >   $ = = - # O @ = & = & + # = - & % # # o = = = = # @ O q o...c ~ p.i.p.d.f.t.2.>.>.2.] >.2.",
"-.2.-.-.' ' -.2.4.-.-.-.;.....Q l 5 o & ; = = # O + = - = & . # - - % % # # o = = : = # $ O d ! C m b y.6.5.5.5.y.5.5.3.3.3.6.6.",
"-.2.-.-.4.4.4.4.4.-.-.-.} X...Q B 2 O & ; & = % o + - = & @ O # - = - & & # o : = : = # @ + m $.X.C M p.y.5.5.2.3.2.6.6.y.6.6.t.",
"4.4.4.4.2.4.2.4.4.4.4.4.-.! X.X.Q * o & = = = # o @ ; = & % o # = - = % % @ + - - : - % # $ m #.Q N H 6.6.6.u.u.6.3.2.3.6.6.3.2.",
"4.4.2.2.2.4.-.-.-.-.-.-.-.b w 8 5 + o * ; ; = $ O # ; = = # O % - : - = = # + = = = % % $ @ m X.E N d t.5.6.6.5.6.6.6.5.3.t.6.y.",
"] 2.>.2.2.>.' ' -.>.4.4.4.W r > * O X % - = = $ . % - = = # . % : - = - = # + - : = = = # O x ! V i 2 ` ( ( ( ( ( ( ` ` ` ] 2.' ",
"2.2.2.2.>.>.] -.4.4.5.4.4.;.m i i > $ = - = = # + = - - = % . = - = - - = # + - : = = = % + r V k 2 2 _ ' ' ' ' ` ` ` ` ` ` ` ' ",
"2.2.3.2.2.] >.-.-.2.4.6.u.1.Q V c 7 $ = = = = @ X = - - = # . % = = - - & # + = : = = # % + , x r w h ( ) ) ' ) ` ' ' -.2.] ' 2.",
"3.3.3.6.3.3.5.2.2.4.-.4.5.[ ! ! k q @ = = & % O O # : = - % . % : = = = % @ + = : = = = % $ $ V ! m r Y >.] ] ] ' ' ' >.>.>.' ' ",
"p.y.i.i.a.a.a.s.d.a.-.>.-.! ! Q l 6 $ - = = $ + O = = = - = . % : = = # % @ O = = = = = % $ $ V ! ..N h i.i.i.i.p.u.u.i.w.6.w.2.",
"u.p.i.i.a.d.a.s.a.a.-.-.-.#.! ! m 5 % ; = - # + O = = = = % . = - = = @ % + . = = = - = % O $ m ! ..V 7 i.d.i.i.s.u.p.p.w.p.u.2.",
"i.i.i.i.a.d.a.a.a.p.' -.=.W Q Q k , % ; = - # + + = = = - % . % ; = = = # . . = = % & - & @ @ b ..! V 6 i.i.y.6.u.u.6.p.6.p.p.] ",
"i.i.i.d.a.a.a.a.a.p.-.2.=. .X.V c 1 % ; = = # + + = - = - @ . = - = - = # + o = = * & ; = O O i ! Q x 9 y.u.i.i.u.u.i.i.p.u.p.2.",
"2.2.4.4.4.4.4.-.4.w.4.4.4.;.V m i * * - = : & + + = = - = # X & = % - = # O X - - = = - & + . i Q V l *.] 5.2.5.,.4.3.,.,.,.,.3.",
"-.2.-.4.-.4.4.-.4.4.4.4.4. .m l r * - ; - = # + @ - : = = + O = % # = = % + O = : - = - & + . d $.X.M w _ 5.2.] ] ] ] >.>.] ] >.",
"4.4.4.4.4.4.4.4.4.w.4.2.1.! ! Q B 1 ; - = = # O @ = ; - = + O % % = & % # @ X = = - = = & O O x X.V l 2 ' 6.5.2.>.] ] >.>.' ] ] ",
"4.4.4.4.4.-.-.4.4.4.4.>.7.^ Q V c * & ; : = # O $ - - - - % + % % - ; & % % X = = = = % & O O x X...m 8 ) 3.6.6.5.t.3.3.,.,.>.,.",
"-.-.-._ _ _ _ _ _ _ _ _ ;.o...V p % & - = = = o $ - = : - % @ # % = - = % # O = % - = = # + O r ^ X.Q g 4.6.5.5.5.6.y.u.u.u.u.p.",
"-.' _ _ _ -.' _ _ _ _ -.*.M k q * O % ; = = @ O $ = - : - * + $ # = - - % # O % = - = = # @ O 5 x k i h 6.w.6.6.y.6.y.u.u.u.y.y.",
"-._ _ _ ` _ _ _ ` _ =._ ;.o.Q l 2 O % - = & # O & = & : = $ + $ # % - - % @ X # % = % % # + O 7 V W m w Y u.6.6.5.6.p.u.u.u.u.u.",
"-.5.-.4.2.-.4.4.-.4.>.-.O...V C i O = - - % @ O & = % - & # O + # % = = # O X + % = % @ # + + 6 Q #.! l P 2.2.5.2.5.5.5.y.u.y.6.",
"w.4.w.4.4.4.4.4.4.4.4.4.[ ! X.! u + - ; - % @ O & - % - % $ + O $ O % = @ O   O # % # O @ O   2 Q Q V p P -.>.>.>.>.>.,.>.] ] ] ",
"4.4.4.4.4.4.-.4.-.4.-.4.| X.X.B q O = - + O O + $ - $ & @ $ $ $ O o # & O   o O + $ @ O   O $ * B ^ Q r R -.' ` ] ` ` ' ) >.-.,.",
"-._ _ _ -.4._ -.-.4.=.-.X.W W x 6 $ k v w w u i s d w w q r l V N d w t w e i k 6 3 2 < 6 i B w i l i y ) ' ) F S T T T ) R R R ",
"4.4.4.2._ -.] -.' =.=.-.*.A M h f h v b H ~ { ;.{ { M i p r i u i k x k k k k p a l M M b l u u y j U =.' ' ) ) R ) ) ` >.` ) ) ",
"a.a.a.w._ _ _ _ L _ _ L _ _ S _ R R R R T R _ R 2.=._ R L _ Y _ ` *._ _ R *._ =.R _ =.=.-.-.' >.4.4.2.5.5.2.5.5.>.<.>.-.>.>.<.<.",
"a.a.a.w._ _ _ _ ) _ _ _ I _ ) S R R R R R R T T _ _ ' _ _ R R I I _ _ _ ` =._ I _ _ -.=.=.=.' <.6.4.2.3.4.2.2.] >.] >.` >.` =.' ",
"j.a.a.a.' _ =._ -.4.-.=.=.=.=._ R =.=.R ` ` ` ` R R L R =.-.=.I S _ _ =.' T ) ` I ( =.-.R ] R >.4.<.>.>.2.3.3.] 3.,.,.>.<.<.<.>.",
"w.w.w.w.-.4.-.-.-.-.4.-.=.=.4.=.=.>.>.=.-.-.' ' =.=.=.-.=.-.-.-.=.=.4.-.>.-.-.-.-.' -.-.,.' <.<.4.4.3.3.2.2.3.3.,.,.>.,.=.=.=.=.",
"' ' ' ' ' ' ] ] -.=._ -.4.4.-.4.<.2.<.<.2.3.,.3.<.<.y.5.5.y.5.5.4.4.y.u.5.y.y.5.t.t.t.t.,.,.t.t.t.t.t.t.t.t.t.y.4.t.5.t.,.>.] ] ",
"` ' ) ` ` ' >.] -.-.-.-.-.-.-.-.>.,.5.4.3.>.,.5.u.t.5.t.5.6.5.5.4.4.<.<.<.<.,.,.R t.t.,.,.,.t.R ,.,.t.t.,.t.t.t.t.t.5.5.] ` R R ",
"2.2.>.] >.>.] ] 4.-.-.-.2.>.-.4.] 3.5.4.3.2.>.5.t.<.<.3.3.3.2.3.4.4.4.5.,.5.t.<.R t.t.R ,.R t.t.t.t.t.t.t.,.5.t.t.t.y.y.,.] ) ` ",
"' ` ] >.>.>.,.] -.-.-.4.>.-.>.-.] 3.5.3.4.5.t.y.y.y.y.5.t.y.6.6.4.4.4.w.t.,.,.t.t.t.t.t.t.t.t.t.t.t.y.t.t.t.y.y.y.u.t.t.,.] ] ] ",
"` ` ' 2.] ` R ` ) ' ' ) _ ( ( ( ) 3.s.p.u.u.u.y.u.u.u.t.6.6.w.6.y.y.5.6.u.u.u.u.u.u.u.y.y.p.s.u.u.s.s.p.u.u.u.y.t.6.6.u.y.u.u.p.",
"` ' ' ' ] ` ` R ) ) ) ) _ ( ( ) ` 5.u.p.u.u.y.u.u.u.y.y.6.6.6.5.5.5.2.5.5.y.u.j.f.u.s.p.y.u.p.u.u.p.y.y.y.y.u.u.u.u.u.u.y.y.y.u.",
">.>.>.' ] R ) ) ' ] ' ' ' ' >.<.' 4.u.u.u.j.u.u.y.y.y.y.w.4.5.4.2.2.>.2.5.<.y.u.u.u.u.f.u.u.u.u.p.p.p.p.s.s.s.s.s.p.u.6.5.5.y.u.",
">.>.>.>.] ' ' ] ] ] >.>.' ' ' ' ] <.5.y.4.t.5.5.5.y.<.5.5.5.5.5.5.2.>.<.<.<.<.t.t.y.y.<.<.t.5.y.t.y.y.u.u.s.u.u.u.6.u.6.6.6.t.4."
};
