/* XPM */
static char *baar1702050266[] = {
/* columns rows colors chars-per-pixel */
"64 64 225 2 ",
"   c #3E1A04",
".  c #411E09",
"X  c #46220B",
"o  c #432B1D",
"O  c #6B341C",
"+  c #643D1C",
"@  c #703B1D",
"#  c #4C3423",
"$  c #463223",
"%  c #523D2C",
"&  c #6A3B24",
"*  c #743A23",
"=  c #7A3D28",
"-  c #78471E",
";  c #5B4736",
":  c #6C4329",
">  c #724621",
",  c #754A23",
"<  c #7B4D24",
"1  c #7A442D",
"2  c #744B2B",
"3  c #7A4F2A",
"4  c #75432B",
"5  c #7D522C",
"6  c #7E5027",
"7  c #644332",
"8  c #694C33",
"9  c #6A493C",
"0  c #684739",
"q  c #7F4832",
"w  c #764835",
"e  c #6B553B",
"r  c #735133",
"t  c #7B5433",
"y  c #7D573A",
"u  c #6D4B41",
"i  c #774E43",
"p  c #695444",
"a  c #7B5144",
"s  c #7C5B43",
"d  c #775947",
"f  c #7E624E",
"g  c #7C6857",
"h  c #814E24",
"j  c #83482C",
"k  c #835126",
"l  c #845329",
"z  c #8B552B",
"x  c #8C592D",
"c  c #87592F",
"v  c #90562D",
"b  c #925B2E",
"n  c #834632",
"m  c #844A35",
"M  c #844E3B",
"N  c #8C4D3A",
"B  c #894C35",
"V  c #835531",
"C  c #865A34",
"Z  c #8B5D33",
"A  c #855E3D",
"S  c #8B523D",
"D  c #925D33",
"F  c #985F35",
"G  c #94533F",
"H  c #915A39",
"J  c #8C613D",
"K  c #8D6033",
"L  c #946135",
"P  c #996136",
"I  c #95643A",
"U  c #9B643B",
"Y  c #9B683B",
"T  c #A1653E",
"R  c #A2693E",
"E  c #845443",
"W  c #8B5847",
"Q  c #825D4B",
"!  c #895847",
"~  c #945642",
"^  c #9D5D43",
"/  c #995E4B",
"(  c #A05F47",
")  c #87684C",
"_  c #8D6B49",
"`  c #866446",
"'  c #956442",
"]  c #946944",
"[  c #9C6B43",
"{  c #926D4A",
"}  c #9A654B",
"|  c #96734D",
" . c #9C734E",
".. c #9E794F",
"X. c #9E7045",
"o. c #846553",
"O. c #8B6351",
"+. c #8C6A53",
"@. c #866B59",
"#. c #9C6651",
"$. c #946C52",
"%. c #936B5A",
"&. c #9A6D5A",
"*. c #9B6B55",
"=. c #8D735C",
"-. c #87715E",
";. c #9A7651",
":. c #9D7B55",
">. c #9E725C",
",. c #977958",
"<. c #A26641",
"1. c #A46B43",
"2. c #A96D45",
"3. c #A3624C",
"4. c #A46E4A",
"5. c #A96E4A",
"6. c #A4724B",
"7. c #AC744C",
"8. c #A67145",
"9. c #B0754E",
"0. c #B27A4F",
"q. c #A36652",
"w. c #A26E5B",
"e. c #A66B57",
"r. c #AE7653",
"t. c #A37D55",
"y. c #AD7C53",
"u. c #A5745E",
"i. c #A57F59",
"p. c #A67258",
"a. c #B47B55",
"s. c #B97E56",
"d. c #B47F5C",
"f. c #8F7661",
"g. c #947A65",
"h. c #917D6B",
"j. c #9E7A66",
"k. c #AC7C64",
"l. c #A47862",
"z. c #B17F68",
"x. c #A58156",
"c. c #A98257",
"v. c #A6835A",
"b. c #AA855C",
"n. c #AD895E",
"m. c #B5815C",
"M. c #BB845B",
"N. c #B18A5F",
"B. c #BA8359",
"V. c #9A836A",
"C. c #9B8772",
"Z. c #A38263",
"A. c #AC8760",
"S. c #AE8A61",
"D. c #A3866C",
"F. c #A9826C",
"G. c #B28D63",
"H. c #B98F64",
"J. c #B3836C",
"K. c #B58F68",
"L. c #B98965",
"P. c #B59166",
"I. c #B99366",
"U. c #B69369",
"Y. c #BA956A",
"T. c #BD996D",
"R. c #A38A72",
"E. c #A78972",
"W. c #B78671",
"Q. c #B48B75",
"!. c #B58F79",
"~. c #B88B73",
"^. c #A89178",
"/. c #BE9C71",
"(. c #B2947C",
"). c #BB947A",
"_. c #B39876",
"`. c #BFA17D",
"'. c #C1895E",
"]. c #C1865C",
"[. c #C38A62",
"{. c #C88F69",
"}. c #C78E68",
"|. c #CA9166",
" X c #C09769",
".X c #CC956C",
"XX c #C19B6E",
"oX c #CE9A6E",
"OX c #D19A6F",
"+X c #C89673",
"@X c #C29E72",
"#X c #CA9A72",
"$X c #D59C74",
"%X c #D09E7C",
"&X c #C5A175",
"*X c #C8A377",
"=X c #C6A479",
"-X c #C9A579",
";X c #CCA97C",
":X c #D4A37A",
">X c #DBA179",
",X c #D1AB7F",
"<X c #D9A277",
"1X c #BC9981",
"2X c #B59983",
"3X c #AC9A80",
"4X c #BDA487",
"5X c #CEAC81",
"6X c #C5A687",
"7X c #DBAC83",
"8X c #D4A984",
"9X c #DFB087",
"0X c #C7AD90",
"qX c #CAB297",
"wX c #D5B797",
"eX c #E3AB83",
"rX c #E1AE8D",
"tX c #E4B48B",
"yX c #EBBF99",
"uX c #E4B993",
"iX c #E9C39D",
"pX c #DDC3A4",
"aX c #ECC6A0",
"sX c #FCD5AF",
"dX c #F3CFAA",
/* pixels */
"Y.Y.Y.Y.XXK. XY.H.S.S.K.XX@X/./.T.U.P.U.U.U.U.U.U.P.U.P.U.U.P.n.P./.T./.&X&XT./.&X/.@XT.XXXX X&XXX&X&XT.XX XT.XXT.T. XI.I.U.Y.T.",
"T.T.Y.I.K.K.K.S.N.G.Y./.XX/./.Y.P.P.P.n.n.n.n.n.U.P.U.U.U.U.U.U.P.T.&X&X/.&X&X&X/./.&X&X*X;X*X*X*X;X;X;X*X*X;X&X&X&X&X&X&X&X&X&X",
"/.Y.P.P.K.K.K.U.H.Y.XX/././.Y.K.U.P.P.U.U.U.U.U.U.n.U.U.G.U.U.U.P.P./.&X/./.&XT././.&X/.*X&X&X&X&X&X&X&X*X*X*X*X;X*X&X*X*X*X=X=X",
"Y.Y.Y.Y.K.Y.T.Y.K.Y.K.K.U.Y.P.K.P.n.n.U.P.n.n.G.P.P.P.P.U.U.U.U.P.T.`.&X;X;X&X/././.=X=X&X;X;XXX&X&X*X*X*X*X*X;X;X&X*X&X&X*X;X=X",
"/.T.@X@X@X/./.Y.U./.U.U.U././././.T.T.T.T.P.P.n.x.v.v.n.n.G.n.v.x.x.v.v.n.v.v.x.c.n.n.x.c.T.T. XXX XXXXXXXXXXX&X&XXXXXT.XXXX@XXX",
"T.U.@X-X@XY.Y.U././.=X/./.@X/.=XT.=X/.;X=X;X&Xx.x.x.x.v.v.v.| v.| | x.x.x.x.| x.| | x.x...N.P.P.I.I.I.I.P. XI.P.I.Y.Y.I.I.I.I.I.",
"H.H.XX@X/./././././././././././././.T./.T./.T.n.x.v.n.v.v.v.v.v.v.v.v.v.x.x.x.x...x.x.c.c.P.I.I.I.P.P.P.I.I.I.P.I.I.Y.I.I.I.T.I.",
"U.G.T.-X@X5X@X;X=X=X;X/././././.T.T.T./././.&Xx.x.v.v.v.v.v.v.n.v.x.v.v.v.v.x.| x...n.n.n.P.P.P.P.P.I.T.I.P.P.I.I.I.I.I.I.I.T.Y.",
" XN.P. XP.Y.Y. XK.U.Y.Y.P.I.Y.XXT.T.&XT.T.T.T.T.P.T.T.T.T.U.V.V._.C.V.^.2X`.&X_.U.U.T.U. X XXX&X&XXXXX&X@X@X@XT.&XXXP.P.P.P.P.P.",
" XI.P.I.I.Y.P.P.U.U.U.P.P.P.XX*X&X&X&X&X&X&X;X&X;X&X;X&XU.=.f @.V.V.V.C.3X4XwXwX=X&X&X&X&X*X;X&X&X&X*X*X&X@X&X&XXXT.P.I.P.P.n.P.",
"I. XI.I.I.I.I.I.K.U.K.P.N.N. X;X;X&X;X;X&X=X&X;X=X&X`.S.f e p g g V.V.-.C.C.qXpXpX5X;X&X&X*X*X&X*X*X*X*X&X&X@X@X/.T.T.U.P.P.n.n.",
"I.I.P.P.I.I.I.I.U.U.U.Y.Y.I.XX*X&X=X;X;X;X,X;X=X;X;X_.p ; e o.g.V.C.C.C.C.V.3XqXpXwX5X&X*X*X;X;X*X&XXX&X&X&X@X@X&X/.U.I.P.U.n.U.",
"&X&XXX X X&X&XN.N.N.P.I.I.P.P.I.N.N.N.N.P.T./.P.v.n.e ; 9 f =.l.Z.K.!.!.!.3XQ.(.4X0X6X&X&XXX&XXXXX&XXX&X@X@XT./././././.T.T.`.T.",
"&X*X;X*X*X&X*XP.N.P.P.N.N.P.P.N.P.n.x.n.n.P.n.n.x._ ; ; d +.&.l.A.E.Q.~.!.!.1X1X2X4X`.&X&XXXXXXXXXXXXXXX@X&X@X@X/./.=X=X=X=X=X=X",
"&X&X&X&X&XXXXXN.P.P.P.N.N.P.G.G.P.N.P.P.P.P.P.P.v.e o ; f ) *.u.k.z.W.W.~.+X1X2X^.2X4X&X&XXXXXT.&XXXXXXX&X&X=X&X=X/.=X/.=X/.T.=X",
";X;X&X&X;X;X*XI.P.N.G.P.G.N.G.G.P.P.P.I.G.n.U.v.s $ $ ; d E O.&.k.z.z.J.W.~.!.2XE.C._.&X&X&X;X&X&XXX&X&X&X&X=X;X=X=X=X=X=X/././.",
"/.&X/.T.T.T.T.T.U.U.P.P.T.T.T.T.T.T.T.XXXXT.I.J # o % u 0 7 0 E >.k.k.z.W.Q.!.3XC.g.D.I.n.P.P.N.N.I.I.I.P.I.I.I.U.T.XXT.T.@XT.T.",
"T.&XT.T.T.P.P.P.T.T.T.T.T.T.T.T.XXXX&XXXXXXX&X8 o o & d u 0 0 0 s %.l.l.>.&.j.z.g.-.,.t.n.P.P.G.I.n.I.N.N.N.G.G.N.P.T.P.P.XXT.T.",
"XXXXT.T.XXT.T.T.U.I.T.Y.I.I.T.T.T.T.I.I.T.T.T.8 # # u i u u ; u d %.&./ ! Q o.f.=.o.V.I.P.P.n.n.N.N.n.x.n.c.c.n.N.P.@XXXXX@X@X&X",
"T.I.XXXXXXT.T.T.U.U.T.`.XXT.T.T.T.T.T.XXXX/./.J 7 7 a a u u u u Q %.*.! d Q O.f.@.f ,.n.n.x.n.n.n.N.c.c.n.N.N.P.P.T.XXXXT.XXXXXX",
"N.N.P.N.P.P.N.P.P.S.P.S.S.S.S.v.n.n.P.I.I.P.N.| w w ! W ! E i i ! %.O.E w Q O.@.f ) S.U.P.P.P.P.I.P.P.n.I.I.I. XI.I.I.I.P.I.I.I.",
"N.G.N.N.G.P.N.N.S.S.n.S.U.S.S.S.n.N.n.n.P.P.P.x.9 & ! W W W E E ! w./ W E O.%.%.d =.U.T. X X X XT.T.U.T.T.P.I.I.I.I.I.I.P.P.P.I.",
"G.Y.U.U.P.P.P.P.U.P.U.U.U.S.S.S.N.I.P.P.P.P.P.G.w w n E W W E m / w./ e.*.w.u.&.O.=.Y.T. XI.I. XU.P.P.I.P.P.I.G.I.I.I.I.P.P.N.I.",
"I.T.U.T.U.T.T.P.U.U.U.U.U.U.U.U.P.T.P.P.P.P.P.P.y & q n ~ N n m ~ q.3./ q.e.e.w.O.b.T.T. X XI. XP.T.U.I.P.P.I.T.H.P.I.I.I.I.I.I.",
"n.n.b.n.x.x.v.S././.=X=X/.=XT.=X&X=X=X&X`.T.T./.:.: 2 q M m = = N N ~ G ( 3.q.q.$.@X=X*X*X&X X&X&X*X*X&XXXXXXX*XI.N.G.H.H.G.H.N.",
"x.x.x.b.x.x.x.b.=X=X=XT.=X-X-X-X&X=X=X;X=X5X=X=XT.J 4 w q q m m N ~ N ~ ( ( 3.w./.;X&X*X&X&X*X*X*XXX*X*X*X*X*X&XXXN.H.N.G.N.P.H.",
"x.x.x.x.x.x.x.x./.=X=X=X=X=X=X=X&X&X&XT././.&X/.&Xi.: 4 = w = n N ~ ~ ~ ( ( #.A.@X;X;X;X*X;X;X*X*X&X*X=X*X*X@X@XI.N.I.I.N.N.N.G.",
"x.x.x.x.x.x.x.v.=X=X=X5X=X=X/.=X;X=X=X=X&X/.&X&X=X&X3 & * O O O O = N ~ ( q.7.~.%X5X5X,X;X5X;X;X;X;X,X*X&X*X;X,XI.I.G.G.P.N.G.P.",
"S.P.S.S.n.n.S.P.U.S.S.S.U.U.U.U.P.n.U.U.U.S.U.U.U.U.A O * * * * = j n B ( 3.}.%XyXyX6X5XwXwX6X/. XT.&XXXT.Y.Y.Y.XXY.Y.I.I.I.T.T.",
"S.P.S.S.U.U.U.U.U.S.S.S.S.S.S.S.S.S.S.S.U.S.S.P.S.U.t.> O * * * * j j n <.].{.:XyXsXdX0X).!.6X6X XXXXX&XXXY.Y.P.I.P.T.T.XXT.T. X",
"U.U.U.U.P.U.P.U.U.U.U.U.S.S.S.S.U.S.S.n.S.P.S.P.S.S.i.3 O @ j H F r.6.H 5.].[.#X7XyXaXA.k.Z.E.U.&XXX XT.T.T.@X@XT.I.P.I.T.T.I.P.",
"U.U.P.P.P.U.n.S.S.S.S.S.S.S.S.S.S.U.U.U.P.G.S.A.v.i._ , 5 [ m.L.r.L.>X+X5.9.'.[.+X9XuX_ | ` ) v.P.P.I. XY.T.T.Y.T.T.T.Y.I. XT.XX",
"N.P.G.P.P.G.n.n.S.S.U.U.U.U.U./.b.;.{ _ ` A A ' 3 ] +XrXL.d.[.d.r.5.d.7X[.9.$X}.|.:X7X:.A ` s _ n.c.n.n.x.x.x.x.x.x.b.b.b.N.U.n.",
"P.P.P.P.G.G.N.S.U.U.T.U.U./././.X . . X + ` [  XeX$Xz.d.5.a.L.9.5.4.5.s.$XeXeX|..XtX9XuX=XK.D.| P.n.n.n.n.n.n.n.b.b.b.b.b.b.b.n.",
"P.P.I.P.P.N.G.S.S.P.U.T././.U./.: y {  .6.6.y.M.a.7.a.a.5.9.|.$X.X$X$X[.a.s.|.|.B.'.:XtXiXaX6Xv.n.c.n.c.c.c.n.c.b.n.n.S.P.n.n.I.",
"I.I.I.T.I.I.I.P.P.U.S.U.U.U.U.U._ ] ]  .d. X#X.X.X[.a.r.1.1.9.s.s.a.9.9.9.s.s.].B.B.M.,XuXuX).Z.n.P.G.G.G.N.N.N.n.n.n.G.G.P.n.b.",
"&XXX&X&X=X=X=X;X;X=XS.P.S.S.U.S.' ' [ X.8.y.M.a.7.4.3.<.R R R 2.2.2.2.2.5.9.s.].].'.oX#X#XS._ v.&X&X&XT.=X&X&X&X-X@X@X&XT.T.T.I.",
"&X&X&X&X=X;X=X*X=X=XS.n.S.S.S.S.I I I Y Y Y [ 1.[ 1.T R T T T R T T 2.2.5.5.9.s.|..XB.M.y.A t Z.&X&X&X&X&X;X&X&X-X@X*X*X`.&X/.I.",
"&X&X&X&X=X;X=X=X=X=Xn.S.A.v.n.S.L L I L P P P Y U U U T P T T Y T P T 2.2.|.>X>X<X$X'.6.X.V r :.T./.=X&X&X=XXXT.@X@XXX&XT.&X&XN.",
"&X&X&X;X=X=X=X=X=X&XS.P.A.A.A.n.K K L K L L L L L P F F P F P Y T T 2.2.2.'.$X|.'.B.7.4.4.t r :.=XT.XXXXXXXX&X&X@X@X&X&X&X&X&XU.",
"P.U.U.U.U.U.U.S.U./.U.U.U.U.P.U.Z D D x L D D D b b F F P P P P F T R R R 0.'.B.B.7.8.8.[ t r ,.I.I.G.I.N.Y.P.Y.I.U.I.H.H.I.H.I.",
"S.P.S.U.S.U.U.S.P.P.U.U.U.U.P.P.D L L x b b b b b b b b F F F P F T R R R 7.<X|.B.9.1.[ ] 3 r _ c.c.c.c.n.Y.P.N.N.N.N.G.N.N.N.G.",
"U.U.U.U.U.U.U.U.U.`.U.U.U.U.U.`.c x x x x x x x z b b b b b b F T P T T 7.7.<X|.a.<.[ I J 3 r { n.n.b.b.N.T.Y.P.N.n.N.P.G.n.N.N.",
"U.U.U.U.U.S.S.U.U.U.U.S.n.n.n.S.z c x x x x x x z v v v b b b b b P P P U R 8.F x k h x I C r { n.n.c.n.c.I.T.T. X XI.I.H.H.G.H.",
"S.S.S.v.v.v.v.v.v.v.v.v.v.v.v.n.c x c c z x z k z z z z z v v b v b b F b b h - - h l H [  .2 | S.G.Y.T.U.T.Y.Y.Y.T.XX@X@X@X@X*X",
"S.S.v.v.v.S.n.v.v.v.v.S.n.v.n.G.l l c l z z x x z z z z z z z x z v z z z v Z Z x b F Y [ +Xt { T.Y.T.T.T./.T.T.XXT.XX@X@X@XXXXX",
"S.v.v.v.v.v.v.v.n.v.S.v.x.x.n.P.k k l l k x k k z z z z z z z k z z z z k v P I P I Y ' [ 8X` | U.U.U.U.Y./.T.T.Y.T.&X&X@X@X@X@X",
"S.U.S.U.U.S.U.U.S.U.S.S.n.N.n.I.6 6 l l k k k k k k k k z k z k k k k k k k Z U U I D D L y.v.| U.U.U.U.U.P.P.Y.P.Y.Y.Y.XX@XXXT.",
"/.U./.U.U.U.U.U.U.U.U.U.U.S.U.U.6 6 6 6 6 k k k l k k k k z k k k h k h h k c I L Z D D I 6.Y.t.S.S.n.U.G.S.G.G.G.G.G.I.N.N.N.N.",
"U.U.U.U.U.U.S.U.S.U.S.U.U.U.U.U.< < 6 l 6 6 6 6 6 k k k k k k k h h h h h < l K L I I D D 4.7X;Xn.S.S.n.G.S.n.b.N.b.b.n.b.N.S.H.",
"n.v.v.v.S.U.v.S.S.U.n.S.S.S.A.A.< 3 < < 6 < < 5 6 6 h h h h k 6 h h h < h < 6 Z L L L Z C U ,X#Xn.n.b.v.c.n.c.....t.t.t.c.i.i.i.",
"Y.U.U.U.v.S.S.S.n.S.A.S.U.S.A.S.3 < , 3 < < < < < < k < < < < - - - < < < < < c Z Z K K C Z *X#XS.P.S.S.n.n.c.c.i.c.x.b.N.b.c.b.",
"=X=X=X/.x.x.v.v.;.v.v.;.v.v.| v., , 3 , , < < < , < < < < < , < h < - < , , , 6 Z Z C C V Z b.H.U.U.P.Y.Y.P.Y.Y.G.K.G.S.G.G.K.K.",
"=X=X=X/.v.v.v.v.v.v.v.v.:.v.v.:., , , , , , , , , , , , < , < , - < - - , , - < V C V V C Z [ i.T.U.P.I.U.P.P.N.G.N.N.b.G.b.A.n.",
",X=X=X=Xn.v.S.v.S.U.S.A.A.S.b.v.3 3 2 , < , , , - , , , - , , > , > - - > , , , 5 t 5 C C l H t.P.P.G.G.P.I.I.N.I.H.H.G.K.K.K.G.",
"`.T././.S.U.S.S.S.S.U.S.A.b.U.S.3 2 , , , , , , , - > , - > , , > > > > , > > , 6 5 V V 3 3 V b.U.U.I.I.P.P.I.I.H.H.G.H.S.A.A.A.",
"S.n.n.n.n.n.N.N.b.S.v.S.U.U.S.U.P.U.U.K.P.I.H.I.K.K.XXY.Y.XXY.Y.U.U.T.&XI.T.XXT. X X X XH.H. X X X X X X X X XXXY.XXY. XI.G.N.N.",
"b.n.c.b.b.n.G.N.S.S.S.S.S.S.S.S.N.P.Y.U.I.G.H.Y.@X XY. XY.T.Y.Y.U.U.P.P.P.P.H.P.i. X XH.H.I. Xi.H.H. X XH. X X X XI.Y.Y.N.b.i.i.",
"P.P.G.N.G.G.N.N.U.S.S.S.P.G.S.U.N.I.Y.Y.I.P.G.Y. XK.K.I.I.I.P.I.U.U.U.I.H.Y. XP.i. X Xt.H.t. X X X X X X XH.XX X X XXXXXH.N.c.b.",
"n.b.N.G.G.G.H.N.S.S.S.U.G.S.S.S.N.I.Y.I.U.Y.Y.XXXXXXXXY. XXXT.T.U.U.U.`. XH.H. X X X XXX X X X X X XXX X X XXXXXXX@X X XH.N.N.N.",
"b.b.n.P.N.b.v.b.c.n.n.c.v.x.x.x.c.I.*X*X@X@X@XXX@X@X@XXXT.T./.T.XXXXY.T.@X@X@X@X@X@X@XXXXX=X*X@XXX*X*X*X@X@X@XXXXXT.T.@XXXXX@X*X",
"b.n.n.n.N.b.b.i.c.c.c.c.v.x.x.v.b.Y.@X*X@X@XXX@X@X@XXXXXT.T.T.Y.Y.Y.P.Y.Y.XX&X;X;X@X-X*XXX&X*X@X&X=XXXXXXXXX@X@XXX@X&X@XXXXXXX@X",
"G.G.G.n.N.i.c.c.n.N.n.n.n.n.N.P.n.P.@X@X@X,X@X@XXXXXXXXX/.U.Y.U.P.P.G.P.I.K.XX@X@X@X@X,XXX&X&X@X*X&X*X*X-X-X-X*X*X&X@XT.Y.Y.XX@X",
"G.G.G.G.N.n.n.N.N.N.G.G.n.n.n.n.n.K.Y.XXY. XY.Y.Y.XXK.I.Y.Y.Y.Y.Y.P.G.K.P.K.K.T.XXXXXXP.P.I.I.XX XXXXX&X@X-X@X@X@XT./.T.T.T.T.Y."
};
