/* XPM */
static char *ondoor1702050663[] = {
/* columns rows colors chars-per-pixel */
"64 64 213 2 ",
"   c #251C0D",
".  c #281F0F",
"X  c #351C0A",
"o  c #281F10",
"O  c #29200F",
"+  c #2C2313",
"@  c #312715",
"#  c #332917",
"$  c #382C17",
"%  c #342A1A",
"&  c #3A2E19",
"*  c #3E311B",
"=  c #3C3323",
"-  c #412C1B",
";  c #482C14",
":  c #43341D",
">  c #54361B",
",  c #69371B",
"<  c #443621",
"1  c #463923",
"2  c #453D2C",
"3  c #4B3C27",
"4  c #533C25",
"5  c #543E2C",
"6  c #533524",
"7  c #483F30",
"8  c #473F30",
"9  c #643E29",
"0  c #733A24",
"q  c #723A25",
"w  c #73471F",
"e  c #59422A",
"r  c #4C4333",
"t  c #534734",
"y  c #544C3C",
"u  c #594B38",
"i  c #5D503E",
"p  c #48402F",
"a  c #62452A",
"s  c #67482E",
"d  c #764A23",
"f  c #7B4D24",
"g  c #77462A",
"h  c #7F522A",
"j  c #654C33",
"k  c #694F33",
"l  c #68483A",
"z  c #7C4935",
"x  c #6D543A",
"c  c #695238",
"v  c #775539",
"b  c #574F40",
"n  c #5C5445",
"m  c #5F5748",
"M  c #5F5847",
"N  c #764E43",
"B  c #605748",
"V  c #625A4B",
"C  c #6B5B46",
"Z  c #7C5443",
"A  c #755C42",
"S  c #775849",
"D  c #675F50",
"F  c #685F50",
"G  c #73624D",
"H  c #7A674D",
"J  c #7D6649",
"K  c #6B6353",
"L  c #6E6758",
"P  c #6F6859",
"I  c #6B6454",
"U  c #766955",
"Y  c #7C6A53",
"T  c #736C5C",
"R  c #7A6D59",
"E  c #746551",
"W  c #79705F",
"Q  c #6D604B",
"!  c #766F60",
"~  c #7B7463",
"^  c #7F7867",
"/  c #7F7768",
"(  c #814E24",
")  c #80452A",
"_  c #845126",
"`  c #845329",
"'  c #8A552B",
"]  c #8D592D",
"[  c #915A2E",
"{  c #90562C",
"}  c #844A34",
"|  c #884B37",
" . c #835733",
".. c #8C5C32",
"X. c #865739",
"o. c #925E32",
"O. c #93553C",
"+. c #956235",
"@. c #996136",
"#. c #94643A",
"$. c #9C643B",
"%. c #9C693D",
"&. c #8F6135",
"*. c #A1663E",
"=. c #885645",
"-. c #9A5C44",
";. c #87664C",
":. c #9B6D46",
">. c #976448",
",. c #97754D",
"<. c #9E794F",
"1. c #9B764F",
"2. c #856957",
"3. c #9C6E5A",
"4. c #956956",
"5. c #837159",
"6. c #8B765D",
"7. c #997650",
"8. c #9D7B53",
"9. c #967A58",
"0. c #9C7D5A",
"q. c #947556",
"w. c #A46C43",
"e. c #A96D46",
"r. c #A56D49",
"t. c #A16548",
"y. c #A5734B",
"u. c #AB734B",
"i. c #B1784F",
"p. c #A46A56",
"a. c #A27D55",
"s. c #AD7B55",
"d. c #A57F59",
"f. c #A47658",
"g. c #B57C57",
"h. c #847865",
"j. c #847C6B",
"k. c #887F6E",
"l. c #867763",
"z. c #947E63",
"x. c #967865",
"c. c #887F70",
"v. c #AB7E67",
"b. c #9D805D",
"n. c #A58156",
"m. c #A98257",
"M. c #A6835A",
"N. c #AA855C",
"B. c #AD895E",
"V. c #B3845C",
"C. c #BC855C",
"Z. c #B18A5F",
"A. c #BC8257",
"S. c #8A806F",
"D. c #94836B",
"F. c #99846A",
"G. c #998366",
"H. c #8C8373",
"J. c #8B8474",
"K. c #938773",
"L. c #9D8A73",
"P. c #948C7C",
"I. c #968977",
"U. c #9E917C",
"Y. c #AC8760",
"T. c #AE8A61",
"R. c #A48B6C",
"E. c #A58869",
"W. c #B28D63",
"Q. c #B98F64",
"!. c #B58F68",
"~. c #B68367",
"^. c #AC916D",
"/. c #B59166",
"(. c #B99366",
"). c #B69369",
"_. c #BA956A",
"`. c #BD996D",
"'. c #A28D73",
"]. c #A48F79",
"[. c #B58A73",
"{. c #A9967C",
"}. c #AC9373",
"|. c #BE9C71",
" X c #B4947C",
".X c #BA9D78",
"XX c #B79877",
"oX c #C1875E",
"OX c #C38C63",
"+X c #C98F66",
"@X c #C09769",
"#X c #CD956C",
"$X c #C19B6E",
"%X c #C89367",
"&X c #C29E72",
"*X c #C89A76",
"=X c #D49B72",
"-X c #C5A175",
";X c #C8A377",
":X c #C6A479",
">X c #C9A579",
",X c #CCA97C",
"<X c #D0AB7F",
"1X c #DAA57D",
"2X c #989082",
"3X c #B59B81",
"4X c #A39580",
"5X c #B7A48C",
"6X c #CEAD80",
"7X c #D9AB83",
"8X c #D8B89A",
"9X c #E3BC96",
"0X c #F4C9A3",
/* pixels */
"_._._._.$X!.@X_.Q.T.T.!.$X&X|.|.`.)./.).).).)./.)./.)./.).)./.T./.`.|.|.-X-X`.|.:X`.-X`.`.$X@X-X$X-X-X`.$X@X`.$X`.`.@X(.(.)._.`.",
"`.`._.(.!.!.!.T.Z.W._.|.$X|.|._./././.B.B.B.T.T././.).).).).).)./.`.-X-X|.-X-X-X|.|.-X-X>X,X;X>X;X,X,X,X;X;X,X-X-X-X-X-X-X-X-X-X",
"|._././.!.!.!.!.Q._.$X|.|.|._.!.)./.).)._.).)././.B.).).B.).).)././.|.-X|.|.-X`.|.|.:X`.:X-X-X-X-X-X-X-X;X;X;X>X,X;X-X;X;X;X:X:X",
"_._._._.!._.`._.)._.!.!.!._.).!./.B.B.)./.B.T.T././././.).).).)./.`.-X-X,X,X-X|.|.`.:X:X-X,X,X$X-X-X;X;X;X;X;X,X,X-X;X-X-X;X,X:X",
"|.`.&X&X&X|.|._.).|.).!.).|.|.|.|.`.`.|.`.)./.B.n.M.M.B.W.T.T.M.M.M.m.M.B.M.M.n.m.B.B.n.m.`.`.(.$X@X$X$X$X$X$X-X-X$X$X$X$X$X$X$X",
"`.).&X>X&X_._.!.|.|.:X|.|.&X|.:X`.:X|.:X-X,X-Xn.n.n.n.M.M.M.,.n.,.,.,.n.n.n.,.n.,.,.n.n.<.B.(./.(.(.(.(./.@X(./.(._._.(.(.(.(.(.",
"Q.Q.$X&X|.|.|.|.|.|.|.|.|.|.|.|.|.|.`.|.`.|.`.B.n.M.T.M.M.M.M.M.M.M.M.M.n.n.n.n.<.n.n.m.m.).(.(././././.(.(.(./.(.(._.(.(.(.`.(.",
").W.`.>X&X6X&X6X:X:X,X|.|.|.|.|.`.`.`.|.|.|.-Xn.n.M.M.M.M.M.m.T.M.M.M.M.M.M.n.,.n.<.B.B.B./.(.(././.(.@X(././.(.(.(.(.(.).(.`._.",
"@XZ./.@X/._._.@X!.)._._./.(._.$X`.`.:X`.`.`.`.`.).`.`.`.`.`.`.`.`.|.).).).`.`.).).).`.).@X@X$X-X-X$X$X-X-X`.-X_.-X$X/./././././.",
"@X(./.(.(._././.).).)./././.$X;X-X-X-X-X-X-X,X:X6X-X,X&X-X-X-X;X>X>X:X:X-X-X-X,X-X-X-X-X-X;X,X-X-X-X>X-X-X-X-X-X$X`./.(././.B./.",
"(.@X(.(.(.(.(.(.!.).!./.Z.Z.@X,X,X-X,X,X-X:X-X,X&XXX{.4X{.|.{.2XP.P.I.^.-X`.`..X-X-X,X-X-X;X;X-X;X;X>X>X-X-X`.-X`.`.`.)././.B.T.",
"(.(././.(.(.(.(.).).)._._.(.$X;X-X-X,X,X,X6X<X.XU.H.P.P.! P.J.j.J.2XS.~ F.{.U.{..X,X,X-X;X;X,X,X;X-X`.-X-X-X-X|.:X`._.)././.B.).",
"-X-X$X@X@X-X-XZ.Z.Z./.(.(././.(.B.W.Z.Z./.XX}.j.k.J.j.~ n j.c.J.S.j./ L K S.S.S.P.P.XX-X-X$X-X$X$X-X$X-X`.-X_.`.|.|.|.|.`.|.|.|.",
"-X;X,X;X;X-X;X/.Z././.Z.Z././.Z./.B.a.T.U.P.P.j.I T ! n 2 V L ! ~ ~ P n K / j.S.J.~ W -X-X$X$X$X$X$X$X$X-X-X-X-X|.|.:X>X:X:X:X:X",
"-X-X-X-X-X$X$XZ./././.Z.Z./.W.W./.B./.F.H.H.J.j.M r r = @ + % & = p p p r P ~ ~ ! P U .X-X|.$X`.-X$X$X$X-X-X:X:X:X|.:X`.:X|.|.:X",
",X6X-X-X,X,X;X(./.Z.W./.W.Z.W.W.).^.).F.S.j.~ ! r O               O     + = y P P M S.P.P.XX,X-X-X$X-X-X-X-X:X,X:X:X:X:X:X|.|.|.",
"|.-X|.`.`.`.`.`.).)././.`.`.`.`.I.H.S.W b K D r +               o           o & 8 r j.H.S.S./.W.Z.(.(.(./.(.)._./.`.$X`.`.-X_.`.",
"`.-X`.`.`./././.`.`.`.`.`.`.`.}.S.S.^ I % O +     + + + o   . @ + @ + +         + = I ~ S.S.R.B./.Z./.Z.Z.Z.W.W.Z./.`././.$X`.`.",
"$X$X`.`.$X`.`.`.).(.`.`.(./.`.H.H.~ D r           @ # @ + . + % & & % + o   o o     = n T j.5.T.Z.Z.B.m.B.m.m.B.Z./.-X$X`.-X-X-X",
"`.(.$X$X$X`.`.`.).).`.|.$X`.^.~ j.L r O   + + + . + & # + % + 2 i K E C t + + # +     + y K 5.G.B.Z.m.m.B.Z.Z.)./.`.@X$X`.$X$X`.",
"Z.Z./.Z././.Z././.T./.T.T.T.T.t p r # O O @ # + + % & $ @ @ 2 C 5.x.z.U.5X4X1 & % # O   # ! ^ T U T.(.B.(./.(.@X(.(.(.(./.(.(.(.",
"Z.W.Z.Z.Z./.Z.Z.T.T.B.T.).E.H.T n = O O % # & # + @ & $ & 2 u 2.x.'.E.L.].8X3X1 * % @     r J.J.~ 6.).`.(./.(.(.(.(.(.(./././.(.",
"W._.).)././././.)./.).).).L.P.J.! n + O * # * % % % : - - 5 S 3.v.[.[.3X3X X3Xu < * $ +   + T J.j.D N.).)./.(.(.(.(.(.(././.Z.(.",
"(.`.).`.).`.`./.).).).).).K.k.k.j.V + @ : * * % @ % - = < l 2.3.v.v.v.[.XX3X].u 1 * & + + O M J.^ V 9.).(./.(.(.Q./.(.(.(.(.(.(.",
"B.B.N.B.n.n.M.T.|.|.:X:X`.'.S.^ L n O @ : : 1 & # @ : - - B l N 3.v.v.~.[.3Xx.t : : * # @   n S.! m 0.-X$X$X$X;X(.Z.W.Q.Q.W.(.Z.",
"n.n.n.N.n.n.n.M.:X:X:X|.:XL.~ j.~ V O # 1 1 : & @ @ - - 6 N N 9 Z 3.v.3.x.E.2.t : * * $ @ O b ^ T y b.;X;X;X;X-X@XZ.Q.Z.W.Z./.Q.",
"n.n.n.n.n.n.n.n.|.:X:X:X:XL.m n n =   @ 1 1 < & + @ : 4 9 N N l N 4.=.S 2.x.S 5 & * - $ + O 2 ! m r ).>X;X;X&X&X(.Z.(.(.Z.Z.Z.Z.",
"n.n.n.n.n.n.n.M.:X:X>X,X.XP.J.! V 2   $ : : : $ + @ : 9 N =.=.Z Z 4.=.=.;.2.S 1 : : : & @ O b J.J.P z.;X-X;X,X<X@X/.W.W./.Z.W./.",
"W./.T.T.B.B.T./.).T.T.T.R.J.J.h.I r O * 1 : * $ + @ : 6 z O.=.X.=.p.>.-.3.4.N = : 3 : & # + V J.~ T Y `.`._._._.$X_._.(.(.(.`.`.",
"B./.T.T.).).).).).T.T.T.G.S.k.j.~ r + * 1 : : * . @ 1 ; g } | z =.p.-.p.p.4.5 < : 1 : & # % T P.H.^ R :X$X_._./.(./.`.`.$X`.`.@X",
").).).)./.)./.).).).).).T.j.H.H.j.= O * : : : $ . # < : 9 z } z } | O.-.p.v @ < : 1 : & $ % T K.j.W 5.`.`.`.&X&X`.(./.(.`.`.(./.",
").)./././.).T.T.T.T.T.T.T.U n n r # O = < < : $ O & 1 : > q q q ) | -.-.-.5 $ : : < & & $ % T S.^ W Q @X_.`.`._.`.`.`._._.@X`.$X",
"Z./.W././.W.B.B.T.W.).).).l.m p = @   * 1 : : # + & < : ; , 0 0 0 ) | -.A.*X3Xx.z.6.t * % + L c.~ m r B.n.n.n.n.n.n.N.N.N.Z./.B.",
"/./././.W.W.Z.T.).).`.).).R.P V D 2 # : : : : $ + & < 1 - > , 0 ) =.| e.+X=X0X9X[.XX;.* % # M ^ K r p M.B.B.B.B.N.N.N.N.N.N.N.B.",
"/./.(././.Z.W.T.T./.).`.|.}.j.! L y # : : : : $ # 4 s e a f O.~.g.oX=Xp.oXOX7X*X;.;.j & & # 2 P B n U m.m.m.B.m.N.B.B.T./.Z.B./.",
"(.(.(.`.(.(._././.).T.).).D.k.k.K b # : : : X X ; h :.s.Q.*Xi.~.p.e.oX#X=XOX7X7Xd.0.5 : * # % ! k.T B 9.W.Z.Z.Z.B.B.T.W.W.W.B.B.",
"-X$X-X-X:X:X:X>X,X:XT.W.T.k.k.j.K y & 1 * : s v >.y.V.Q.g.g.r.OX#X=XoXg.+XoXOX7X9X8XA : & @ % W k.S.W H -X-X-X-X>X&X$X-X`.`.|.).",
"-X-X-X-X:X,X>X>X:X:XT.T.T.K.k.k.P r % 1 : < :.:.y.W.+Xg.i.w.w.e.e.e.u.u.g.OXA.+X7X|.e : & # # W k.S.~ i -X,X-X-X>X&X>X>X|.:X-X/.",
"-X-X-X-X:X,X:X:X:X:XB.T.Y.j.j.h.K p % 3 < < #.#.$.%.w.w.w.*.*.*.*.w.e.e.i.A.#XOXm...e : * # # T J.S.! y -X-X$X`.$X-X$X-X$X-X-XB.",
"-X-X-X,X:X:X:X:X:X-XT./.Y.F.J.~ L p * 1 * : &.+.+.+.@.#.$.@.@.@.$.*.e.e.1X=X%Xu.w.v e 1 * @ O V k.^ L i $X&X-X-X&X&X-X-X-X-X-X/.",
"/.).).).).).).T.).|.).).).E.^ T M = * 1 : 1 ..+.+.] +.[ +.+.@.@.o.*.e.*.A.A.i.y.:.v 4 : * @ O V j.~ Q E.Z._./._.Q./.(.Q.Q.Q.Q.(.",
"T./.T.).T.).).T.).).).).).F.T I D & < 1 < : ] ] ] ] ] { [ [ o.o.o.*.*.e.#X%Xu.%.#.v 4 1 & @ O D P.H.T n N._./.Z.Z.Z.Z.W.W.Z.Z.W.",
").).).).).).).).).|.).).}.S.j.j.T p 1 < 1 * ' ] ] ] ' ' { { { [ o.+.@.*.:.] ` ' #. .4 : * @ + L J.^ I r B.`._./.W.T.Z.W.W.B.Z.Z.",
").).).).).T.T.).).).).T.'.S.j.~ P = = 1 1 * ] ` ' ' ' ' ' ' ' { ' { { ' ' ' ] o.y.a.> : * + + P J.S.T i m.(.`.`.@X@X(.(.(.Q.W.Q.",
"T.T.T.M.M.M.M.M.M.M.M.M.R.H.J.~ K % * 1 : : h ` ` ` ` ` ' ' ' ' ' _ _ _ [ $.#.$.:.!.> * * @ O M k.J.h.G ).`._._._.`.$X&X&X&X&X;X",
"T.T.M.M.M.T.B.M.M.M.M.B.M.T K y = + $ 1 1 * f h ` ` ` _ ( _ _ _ ' _ ( ( ' +.o...#.V.a * * # + y L K B G `.|.`.`.$X`.$X&X&X&X$X$X",
"T.M.M.M.M.M.M.M.T.M.B.M.'.J.^ I p @ * < : * h f h f f ( ( ( ( ( ( ( ( ( ` &.+.#.o.V.0.$ $ @ + y ^ j.T n b.`.`.`._.`.-X-X&X&X&X&X",
"T.).T.).(.T.).).T.).T.T.K.H.^ ^ M @ * 1 : $ f f f f f f ( ( ( f f f f f f ....&. .s.q.@ $ @ @ y j.H.k.L q././._./._._._.$X&X$X`.",
"|.).`._.).).).).).).).).S.J.H.k.B # < 1 1 & d d d d d d f d f d f d w d d h  . . .#.k + + + + r h.j.~ K q.B.W.W.W./.W.Q.Z.Z.Z.Z.",
").).).).).).T.).T.).T.).D.H.H.T y @ * < # + h d d d d d d d d d d w w d d f `  . .' s + + + % = ! c.j.m b.T.B.N.Z.N.N.B.N.Z.W.Q.",
"T.M.M.M.T.).M.T.T.).Y.T.S.^ j.L r % K I n B c x c x c k j k x A v x k k k k x A k k u r y B ! n B K m C m.B.m.<.,.a.a.a.m.d.d.d.",
").).).).M.T.T.T.B.Y.Y.T.E.;.Y H ;.G E Y 5.6.G.R.G.G.R V V V V V V K K K D K K F V L U R Y K m m A H 9.B.B.B.m.m.n.m.m.N.Z.N.m.N.",
":X:X:X|.M.M.M.M.,.M.M.7.n.M.,.M.d.d.d.d.a.d.M.d./.B.M.d.7.M.0.M.M.M.M.Y.M.Y.M.M.M.M.Y.Y.T.T.B.W.).)./._._./._._.W.!.W.T.W.W.!.!.",
":X:X:X|.M.M.M.M.M.M.M.M.8.M.M.q.d.d.d.d.d.d.a.a.M.M.Y.M.M.d.d.8.9.M.M.M.N.N.M.9.M.M.T.Y.Y.Y.B.!.`.)./.(.)././.Z.W.Z.Z.B.W.N.Y.N.",
",X>X:X:XT.M.B.M.T.).T.Y.B.T.B.M.d.Y.Y.d.M.N.B.B.n.d.7.d.Y.T.Y.8.,.M.M.Y.B.a.n.B.8.n.Y.T.d.Z.d.W././.W.W./.(.(.Z.(.Q.Q.W.!.!.!.W.",
"|.|.|.|.T.).T.T.T.T.).T.Y.B.).B.Y.W.W.Y.T.T.N.B.N.T.Y.T.Y.T.T.T.Y.Y.).Y.W.T.T.T.T.B.T.T.Q.Y.!.!.).)./.(././.(.(.Q.Q.W.Q.T.Y.Y.Y.",
"W.B.B.B.B.B.Z.Z.Y.Y.M.T.).).T.)./.).!.!./.(.Q.(.!.!.$X_._.$X_._.).).&X&X_.&X$X_.@X@X@X@XQ.Q.@X@X@X@X@X@X@X@X@X$X_._._.@XQ.W.Z.Z.",
"N.B.m.N.N.B.W.Z.T.T.T.T.T.T.T.T.Z./._.).(.W.Q._.&X@X_.@X_.`._._.).).!.!.W.!.Q.Q.d.@X@XQ.Q.Q.@Xd.Q.Q.@X@XQ.@X@X@X@X@X_._.Z.N.d.d.",
"/./.W.Z.W.W.Z.Z.).T.T.T./.W.T.).Z.(._._.(./.W._.@X!.!.(.(.(.!.(.).).).).Q._._.!.M.@X@Xa.Q.d.@X@X@X@X@X@X@XQ.@X@X@X@X$X$XQ.B.m.N.",
"B.N.Z.W.W.W.Q.Z.T.T.T.).W.T.W.T.Z.(._.(.)._.@X$X$X$X$X_.@X$X`.`.).).).|.@XQ.Q.@X@X@X@X@X@X@X@X@X@X@X$X@X@X@X$X$X$X&X@X@XQ.Z.Z.Z.",
"N.N.B./.Z.N.d.N.m.B.B.m.M.n.n.n.m.(.;X;X&X&X&X$X&X&X&X@X`.`.|.`.$X$X_.`.&X&X&X&X-X&X&X$X$X;X>X&X&X>X>X;X&X&X&X$X@X`.`.&X$X&X&X;X",
"N.B.B.B.Z.N.N.d.m.m.m.m.M.n.n.m.N._.&X;X&X&X$X&X&X&X$X$X`.`.`._._._./._._.$X&X6X,X&X>X;X$X&X;X&X&X;X$X$X$X$X&X&X&X&X-X&X$X$X$X&X",
"W.W.W.B.Z.d.m.m.B.Z.B.B.B.B.Z./.B./.&X&X&X<X&X&X$X$X$X$X|.)._._././.W./._.!.$X&X&X&X&X<X&X&X&X&X;X;X;X;X>X>X>X>X;X-X&X`._._.$X&X",
"W.W.W.W.Z.B.B.Z.Z.Z.W.W.B.B.B.B.B.!._.$X_.@X_._._.$X!._._._._._._./.W.!.!.!.!.@X@X$X$X!.!.@X_.$X@X$X$X&X&X>X&X&X&X`.&X`.`.`.`._."
};
